<svg width="161" height="42" viewBox="0 0 161 42" fill="none" xmlns="http://www.w3.org/2000/svg">
<path d="M0.784 26.16V32.768H14.896V41H22.288V32.768H26.096V26.496H22.288V1.352H13.944L0.784 26.16ZM14.896 11.432V26.496H7.056L14.784 11.432H14.896ZM29.8743 1.016V41H37.2663V9.08H37.3783L44.4903 41H50.7623L57.8743 9.08H57.9863V41H65.3783V1.016H53.4503L47.6823 29.24H47.5703L41.8583 1.016H29.8743ZM78.3834 21.008C78.3834 18.32 78.4394 16.0427 78.5514 14.176C78.7007 12.3093 78.962 10.7787 79.3354 9.584C79.746 8.38933 80.306 7.53066 81.0154 7.008C81.762 6.448 82.7327 6.168 83.9274 6.168C85.122 6.168 86.074 6.448 86.7834 7.008C87.53 7.53066 88.09 8.38933 88.4634 9.584C88.874 10.7787 89.1354 12.3093 89.2474 14.176C89.3967 16.0427 89.4714 18.32 89.4714 21.008C89.4714 23.696 89.3967 25.992 89.2474 27.896C89.1354 29.7627 88.874 31.2933 88.4634 32.488C88.09 33.6453 87.53 34.504 86.7834 35.064C86.074 35.5867 85.122 35.848 83.9274 35.848C82.7327 35.848 81.762 35.5867 81.0154 35.064C80.306 34.504 79.746 33.6453 79.3354 32.488C78.962 31.2933 78.7007 29.7627 78.5514 27.896C78.4394 25.992 78.3834 23.696 78.3834 21.008ZM70.3194 21.008C70.3194 24.0693 70.45 26.8693 70.7114 29.408C71.01 31.9467 71.626 34.1307 72.5594 35.96C73.53 37.7893 74.9114 39.1893 76.7034 40.16C78.4954 41.1307 80.9034 41.616 83.9274 41.616C86.9514 41.616 89.3594 41.1307 91.1514 40.16C92.9434 39.1893 94.306 37.7893 95.2394 35.96C96.21 34.1307 96.826 31.9467 97.0874 29.408C97.386 26.8693 97.5354 24.0693 97.5354 21.008C97.5354 17.984 97.386 15.2027 97.0874 12.664C96.826 10.088 96.21 7.88533 95.2394 6.056C94.306 4.22667 92.9434 2.808 91.1514 1.8C89.3594 0.754664 86.9514 0.231997 83.9274 0.231997C80.9034 0.231997 78.4954 0.754664 76.7034 1.8C74.9114 2.808 73.53 4.22667 72.5594 6.056C71.626 7.88533 71.01 10.088 70.7114 12.664C70.45 15.2027 70.3194 17.984 70.3194 21.008ZM109.501 21.008C109.501 18.32 109.557 16.0427 109.669 14.176C109.818 12.3093 110.079 10.7787 110.453 9.584C110.863 8.38933 111.423 7.53066 112.133 7.008C112.879 6.448 113.85 6.168 115.045 6.168C116.239 6.168 117.191 6.448 117.901 7.008C118.647 7.53066 119.207 8.38933 119.581 9.584C119.991 10.7787 120.253 12.3093 120.365 14.176C120.514 16.0427 120.589 18.32 120.589 21.008C120.589 23.696 120.514 25.992 120.365 27.896C120.253 29.7627 119.991 31.2933 119.581 32.488C119.207 33.6453 118.647 34.504 117.901 35.064C117.191 35.5867 116.239 35.848 115.045 35.848C113.85 35.848 112.879 35.5867 112.133 35.064C111.423 34.504 110.863 33.6453 110.453 32.488C110.079 31.2933 109.818 29.7627 109.669 27.896C109.557 25.992 109.501 23.696 109.501 21.008ZM101.437 21.008C101.437 24.0693 101.567 26.8693 101.829 29.408C102.127 31.9467 102.743 34.1307 103.677 35.96C104.647 37.7893 106.029 39.1893 107.821 40.16C109.613 41.1307 112.021 41.616 115.045 41.616C118.069 41.616 120.477 41.1307 122.269 40.16C124.061 39.1893 125.423 37.7893 126.357 35.96C127.327 34.1307 127.943 31.9467 128.205 29.408C128.503 26.8693 128.653 24.0693 128.653 21.008C128.653 17.984 128.503 15.2027 128.205 12.664C127.943 10.088 127.327 7.88533 126.357 6.056C125.423 4.22667 124.061 2.808 122.269 1.8C120.477 0.754664 118.069 0.231997 115.045 0.231997C112.021 0.231997 109.613 0.754664 107.821 1.8C106.029 2.808 104.647 4.22667 103.677 6.056C102.743 7.88533 102.127 10.088 101.829 12.664C101.567 15.2027 101.437 17.984 101.437 21.008ZM141.85 35.064V6.952H145.266C146.796 6.952 148.01 7.25067 148.906 7.848C149.839 8.408 150.53 9.26667 150.978 10.424C151.463 11.544 151.78 12.9627 151.93 14.68C152.079 16.3973 152.154 18.3947 152.154 20.672C152.154 23.3973 152.06 25.6747 151.874 27.504C151.724 29.3333 151.388 30.808 150.866 31.928C150.38 33.048 149.708 33.8507 148.85 34.336C147.991 34.8213 146.852 35.064 145.434 35.064H141.85ZM133.786 1.016V41H146.498C149.186 41 151.407 40.5893 153.162 39.768C154.916 38.9467 156.316 37.696 157.362 36.016C158.407 34.336 159.135 32.208 159.546 29.632C159.994 27.0187 160.218 23.9573 160.218 20.448C160.218 17.4987 160.05 14.8293 159.714 12.44C159.378 10.0507 158.724 8.016 157.754 6.336C156.82 4.61867 155.495 3.312 153.778 2.416C152.06 1.48266 149.802 1.016 147.002 1.016H133.786Z" fill="white"/>
</svg>
