<svg width="32" height="32" viewBox="0 0 32 32" fill="none" xmlns="http://www.w3.org/2000/svg">
<path d="M2.66943 16.0024C2.67098 22.5616 7.44064 28.1464 13.9188 29.1744V19.8557H10.5361V16.0024H13.9228V13.0691C13.7714 11.6791 14.2461 10.2939 15.2183 9.28898C16.1904 8.2841 17.5592 7.76375 18.9534 7.86907C19.9541 7.88523 20.9524 7.97435 21.9401 8.13573V11.4144H20.2548C19.6746 11.3384 19.0912 11.53 18.6691 11.9353C18.247 12.3405 18.0318 12.9156 18.0841 13.4984V16.0024H21.7788L21.1881 19.8571H18.0841V29.1744C25.0901 28.0672 30.0029 21.6688 29.2634 14.6145C28.524 7.56023 22.3912 2.31964 15.3079 2.6893C8.22458 3.05897 2.67056 8.90948 2.66943 16.0024Z" fill="white"/>
</svg>
