<svg width="23" height="20" viewBox="0 0 23 20" fill="none" xmlns="http://www.w3.org/2000/svg">
<path fill-rule="evenodd" clip-rule="evenodd" d="M0.571289 16.0955V3.90504C0.571289 3.09676 0.892376 2.32159 1.46392 1.75005C2.03546 1.17851 2.81063 0.857422 3.61891 0.857422H18.857C19.6653 0.857422 20.4405 1.17851 21.012 1.75005C21.5835 2.32159 21.9046 3.09676 21.9046 3.90504V16.0955C21.9046 16.9038 21.5835 17.679 21.012 18.2505C20.4405 18.822 19.6653 19.1431 18.857 19.1431H3.61891C2.81063 19.1431 2.03546 18.822 1.46392 18.2505C0.892376 17.679 0.571289 16.9038 0.571289 16.0955Z" stroke="black" stroke-linecap="round" stroke-linejoin="round"/>
<path d="M3.61914 6.19043L11.2382 10.7619L18.8572 6.19043" stroke="black" stroke-linecap="round" stroke-linejoin="round"/>
</svg>
