<svg width="25" height="25" viewBox="0 0 25 25" fill="none" xmlns="http://www.w3.org/2000/svg">
<path d="M12.0024 24.0548C8.72244 24.0548 8.33578 24.0375 7.05577 23.9815C6.0576 23.9487 5.07235 23.7458 4.14244 23.3815C2.53352 22.7554 1.2613 21.4827 0.635775 19.8735C0.285516 18.9402 0.0965986 17.9542 0.0771081 16.9575C0.00244141 15.6802 0.00244141 15.2615 0.00244141 12.0068C0.00244141 8.7175 0.0197747 8.3335 0.0771081 7.06017C0.0970249 6.06486 0.285936 5.08018 0.635775 4.14817C1.26062 2.53688 2.53491 1.26307 4.14644 0.638836C5.07797 0.287106 6.0629 0.097695 7.05844 0.0788359C8.33178 0.00683594 8.75044 0.00683594 12.0024 0.00683594C15.3091 0.00683594 15.6891 0.0241693 16.9491 0.0788359C17.9472 0.0978581 18.9348 0.287249 19.8691 0.638836C21.4802 1.26377 22.7542 2.53734 23.3798 4.14817C23.7359 5.09376 23.9259 6.09384 23.9411 7.10417C24.0158 8.3815 24.0158 8.79884 24.0158 12.0522C24.0158 15.3055 23.9971 15.7322 23.9411 16.9948C23.9213 17.9924 23.7319 18.9794 23.3811 19.9135C22.754 21.5238 21.4799 22.7969 19.8691 23.4228C18.9361 23.7724 17.9506 23.9613 16.9544 23.9815C15.6811 24.0548 15.2638 24.0548 12.0024 24.0548ZM11.9571 2.1175C8.69578 2.1175 8.35711 2.1335 7.08378 2.19084C6.32375 2.2009 5.57108 2.34116 4.85844 2.6055C3.80611 3.00818 2.97341 3.83749 2.56644 4.88817C2.30006 5.60857 2.15979 6.36947 2.15177 7.1375C2.08111 8.4295 2.08111 8.76817 2.08111 12.0068C2.08111 15.2068 2.09311 15.5948 2.15177 16.8788C2.16371 17.6391 2.3039 18.3919 2.56644 19.1055C2.97401 20.1555 3.80657 20.9842 4.85844 21.3868C5.57059 21.6529 6.32358 21.7932 7.08378 21.8015C8.37444 21.8762 8.71444 21.8762 11.9571 21.8762C15.2278 21.8762 15.5664 21.8602 16.8291 21.8015C17.5896 21.7922 18.3429 21.652 19.0558 21.3868C20.1017 20.9807 20.929 20.1539 21.3358 19.1082C21.6016 18.3872 21.7419 17.6259 21.7504 16.8575H21.7651C21.8224 15.5828 21.8224 15.2428 21.8224 11.9855C21.8224 8.72817 21.8078 8.3855 21.7504 7.11217C21.7385 6.35277 21.5983 5.60085 21.3358 4.88817C20.9299 3.84093 20.1025 3.01256 19.0558 2.6055C18.343 2.33982 17.5897 2.19953 16.8291 2.19084C15.5398 2.1175 15.2024 2.1175 11.9571 2.1175ZM12.0024 18.1655C9.50909 18.1671 7.26033 16.6665 6.30492 14.3634C5.34952 12.0604 5.87565 9.40861 7.63795 7.64478C9.40025 5.88096 12.0516 5.35253 14.3555 6.30594C16.6593 7.25936 18.1619 9.50682 18.1624 12.0002C18.1588 15.4016 15.4039 18.1589 12.0024 18.1655ZM12.0024 7.9975C9.7933 7.9975 8.00244 9.78836 8.00244 11.9975C8.00244 14.2066 9.7933 15.9975 12.0024 15.9975C14.2116 15.9975 16.0024 14.2066 16.0024 11.9975C15.9973 9.79049 14.2095 8.00263 12.0024 7.9975ZM18.4024 7.04684C17.6097 7.04389 16.969 6.39962 16.9704 5.60685C16.9719 4.81407 17.615 4.17218 18.4078 4.17218C19.2005 4.17218 19.8436 4.81406 19.8451 5.60684C19.8455 5.98932 19.6935 6.3562 19.4228 6.62641C19.1521 6.89661 18.7849 7.0479 18.4024 7.04684Z" fill="white"/>
</svg>
