<svg width="28" height="23" viewBox="0 0 28 23" fill="none" xmlns="http://www.w3.org/2000/svg">
<path d="M24.66 3.91699C25.8553 3.20245 26.7496 2.07731 27.176 0.751659C26.0529 1.41806 24.8241 1.8875 23.5427 2.13966C21.7661 0.260363 18.9514 -0.196973 16.6712 1.0232C14.3911 2.24337 13.21 4.83898 13.788 7.35966C9.1875 7.12869 4.90131 4.95555 1.99602 1.38099C0.479807 3.99622 1.25462 7.33937 3.76669 9.02099C2.8583 8.99179 1.97006 8.74584 1.17602 8.30366C1.17602 8.32766 1.17602 8.35166 1.17602 8.37566C1.17655 11.0999 3.09652 13.4464 5.76669 13.9863C4.92411 14.2156 4.0403 14.2493 3.18269 14.085C3.93362 16.4147 6.08076 18.0107 8.52802 18.0583C6.50113 19.6492 3.99799 20.5119 1.42135 20.5077C0.964648 20.5083 0.508301 20.482 0.0546875 20.429C2.67121 22.1104 5.71651 23.0028 8.82669 22.9997C13.1537 23.0294 17.3121 21.3235 20.3717 18.2637C23.4313 15.2038 25.1368 11.0453 25.1067 6.71833C25.1067 6.47033 25.1009 6.22366 25.0894 5.97833C26.21 5.16846 27.1771 4.16519 27.9454 3.01566C26.9014 3.47841 25.794 3.78222 24.66 3.91699Z" fill="white"/>
</svg>
