<svg width="31" height="66" viewBox="0 0 31 66" fill="none" xmlns="http://www.w3.org/2000/svg">
<path fill-rule="evenodd" clip-rule="evenodd" d="M28.1802 0.764856C29.0673 1.06192 29.7416 1.5814 30.0551 2.20938C30.3687 2.83736 30.2958 3.5226 29.8527 4.11486L8.20019 32.9999L29.8602 61.8799C30.0853 62.1737 30.221 62.4943 30.2594 62.8232C30.2978 63.1522 30.2381 63.4829 30.0839 63.7964C29.9296 64.1099 29.6838 64.4 29.3606 64.6498C29.0374 64.8997 28.6432 65.1044 28.2008 65.2522C27.7583 65.4 27.2763 65.488 26.7826 65.5111C26.2889 65.5341 25.7933 65.4918 25.3243 65.3865C24.8552 65.2812 24.4221 65.1151 24.0498 64.8977C23.6775 64.6803 23.3735 64.416 23.1552 64.1199L0.655187 34.1199C0.393876 33.7722 0.257812 33.3887 0.257812 32.9999C0.257812 32.611 0.393876 32.2275 0.655187 31.8799L23.1552 1.87986C23.6008 1.28842 24.38 0.838909 25.322 0.629893C26.2639 0.420878 27.2918 0.469413 28.1802 0.764856Z" fill="#F8F8F8"/>
</svg>
