<svg width="31" height="66" viewBox="0 0 31 66" fill="none" xmlns="http://www.w3.org/2000/svg">
<path fill-rule="evenodd" clip-rule="evenodd" d="M2.81837 0.764901C3.70751 0.46788 4.73722 0.418487 5.68099 0.627588C6.62476 0.836689 7.40528 1.28716 7.85087 1.8799L30.3509 31.8799C30.6122 32.2276 30.7482 32.611 30.7482 32.9999C30.7482 33.3888 30.6122 33.7723 30.3509 34.1199L7.85087 64.1199C7.63258 64.416 7.32853 64.6804 6.95625 64.8978C6.58398 65.1152 6.15083 65.2813 5.6818 65.3866C5.21276 65.4918 4.71711 65.5341 4.22342 65.5111C3.72973 65.4881 3.24776 65.4001 2.8053 65.2523C2.36285 65.1045 1.96865 64.8997 1.64545 64.6499C1.32225 64.4 1.07644 64.11 0.922176 63.7965C0.767915 63.483 0.708261 63.1522 0.746652 62.8233C0.785044 62.4943 0.920722 62.1737 1.14587 61.8799L22.7984 32.9999L1.14587 4.1199C0.700332 3.52714 0.626241 2.84067 0.939893 2.21149C1.25354 1.58231 1.92925 1.06196 2.81837 0.764901Z" fill="#F8F8F8"/>
</svg>
