<svg width="28" height="20" viewBox="0 0 28 20" fill="none" xmlns="http://www.w3.org/2000/svg">
<path d="M14.0078 19.3497H13.9812C13.8985 19.3497 5.62784 19.3337 3.54118 18.767C2.39374 18.4579 1.49764 17.5613 1.18918 16.4137C0.813947 14.2968 0.632751 12.1501 0.647843 10.0003C0.638149 7.84701 0.824248 5.69727 1.20384 3.57766C1.52079 2.42901 2.41295 1.52826 3.55851 1.20033C5.58784 0.666992 13.6305 0.666992 13.9718 0.666992H13.9998C14.0838 0.666992 22.3758 0.682992 24.4412 1.24966C25.5862 1.56034 26.4805 2.45512 26.7905 3.60033C27.1777 5.72505 27.3594 7.88211 27.3332 10.0417C27.3425 12.1924 27.156 14.3395 26.7758 16.4563C26.4634 17.6025 25.5667 18.4971 24.4198 18.807C22.3932 19.3443 14.3492 19.3497 14.0078 19.3497ZM11.3412 6.00699L11.3345 14.007L18.2838 10.007L11.3412 6.00699Z" fill="white"/>
</svg>
